# xmcd
#
# Track frame offsets: 
#        150
#        15392
#        30327
#        43930
#        59172
#        73377
#        89165
#        101170
#        112260
#        125835
#        140932
#        152752
#
# Disc length: 2214 seconds
#
# Revision: 2
# Processed by: cddbd v1.5.1PL0 Copyright (c) Steve Scherf et al.
# Submitted via: ExactAudioCopy v0.95a5
#
DISCID=c108a40c
DTITLE=Peggy Lee - The Best Of Peggy Lee
DYEAR=2002
DGENRE=Pop Vocal
TTITLE0=Lover
TTITLE1=Be Anything (But Be Mine)
TTITLE2=Just One Of Those Things
TTITLE3=Sans Souci
TTITLE4=Black Coffee
TTITLE5=Somebody Loves Me
TTITLE6=Let Me Go, Lover
TTITLE7=The Siamese Cat Song
TTITLE8=Johnny Guitar
TTITLE9=Mr. Wonderful
TTITLE10=He Needs Me
TTITLE11=I Don't Know Enough About You
EXTD=
EXTT0=
EXTT1=
EXTT2=
EXTT3=
EXTT4=
EXTT5=
EXTT6=
EXTT7=
EXTT8=
EXTT9=
EXTT10=
EXTT11=
PLAYORDER=
